<?xml version="1.0" standalone="no"?><!DOCTYPE svg PUBLIC "-//W3C//DTD SVG 1.1//EN" "http://www.w3.org/Graphics/SVG/1.1/DTD/svg11.dtd"><svg t="1701395108395" class="icon" viewBox="0 0 1024 1024" version="1.1" xmlns="http://www.w3.org/2000/svg" p-id="9010" xmlns:xlink="http://www.w3.org/1999/xlink" width="200" height="200"><path d="M103.5 959.6h813.3v-50.9l-813.3 0.1zM900.7 854.6l-49-0.2-0.5-638.3 65.3-0.1v-8.6L829 176l-29.9-10.8-23-8.2-265.8-95.5L244.6 157l-23 8.2-31 11.1-86.9 31.2v8.5l65.6 0.1-0.3 638.7H103.3v34.9l813.4-0.1v-34.9l-16-0.1z m-627.1-35.2h-38.1v-92.2h38.1v92.2z m0-129.9h-38.1V562.3h38.1v127.2zM354 819.4h-38.1v-92.2H354v92.2z m0-129.9h-38.1V562.8H354v126.7z m89.4 130.3h-44.5v-92.1h44.5v92.1z m0-130.3h-44.5V562.3h44.5v127.2z m89 130.3h-44.5v-92.1h44.5v92.1z m0-130.3h-44.5V562.3h44.5v127.2z m88.9 130.3h-44.5v-92.1h44.5v92.1z m0-130.3h-44.5V562.3h44.5v127.2zM639 351.9c-4.2 66.3-72.3 111.6-72.3 111.6s20.5-50.4 8-95.6c-11.6-42.3-56.2-79.7-56.2-79.7s-5 27.9-8 39.8c-4.7 18.4-8 31.9-8 31.9L478.4 320s-20.1 44.7-32.1 71.7c-16.8 37.9 0 71.7 0 71.7s-58.3-34-64.3-87.6c-6-53.9 40.2-127.5 40.2-127.5l8 39.8s29.6-32.6 48.2-71.7c12.3-25.8 8-63.7 8-63.7s27.6 13.8 48.2 39.8c23.4 29.5 40.2 79.7 40.2 79.7l8-63.7s60.1 82.4 56.2 143.4z m65.4 466.5h-38.1v-92.2h38.1v92.2z m0-130h-38.1V561.3h38.1v127.1z m80.4 130h-38.1v-92.2h38.1v92.2z m0-130h-38.1V561.3h38.1v127.1z" p-id="9011" fill="#d81e06"></path></svg>